  0
SECTION
  2
HEADER
  9
$ACADVER
  1
AC1009
  9
$INSBASE
 10
0
 20
0
 30
0
  9
$EXTMIN
 10
0
 20
0
  9
$EXTMAX
 10
148.5
 20
105
  9
$LIMMIN
 10
0
 20
0
  9
$LIMMAX
 10
148.5
 20
105
  9
$LTSCALE
 40
0.5
  0
ENDSEC
  0
SECTION
  2
TABLES
  0
TABLE
  2
LTYPE
 70
     9
  0
LTYPE
  2
CONTINUOUS
 70
    64
  3
実線
 72
    65
 73
     0
 40
0.0
  0
LTYPE
  2
DASHED1
 70
    64
  3
--  --  --  --  --  --  --  --  
 72
    65
 73
     2
 40
2.5
 49
1.25
 49
-1.25
  0
LTYPE
  2
DASHED2
 70
    64
  3
----    ----    ----    ----    
 72
    65
 73
     2
 40
5.0
 49
2.5
 49
-2.5
  0
LTYPE
  2
DASHED3
 70
    64
  3
------  ------  ------  ------  
 72
    65
 73
     2
 40
5.0
 49
3.75
 49
-1.25
  0
LTYPE
  2
CENTER1
 70
    64
  3
----- - ----- - ----- - ----- - 
 72
    65
 73
     4
 40
10.0
 49
6.25
 49
-1.25
 49
1.25
 49
-1.25
  0
LTYPE
  2
CENTER2
 70
    64
  3
----------  --  ----------  --  
 72
    65
 73
     4
 40
20.0
 49
12.5
 49
-2.5
 49
2.5
 49
-2.5
  0
LTYPE
  2
PHANTOM1
 70
    64
  3
--- - - --- - - --- - - --- - - 
 72
    65
 73
     6
 40
10.0
 49
3.25
 49
-1.25
 49
1.25
 49
-1.25
 49
1.25
 49
-1.25
  0
LTYPE
  2
PHANTOM2
 70
    64
  3
--------  -  -  --------  -  -  
 72
    65
 73
     6
 40
20.0
 49
10.0
 49
-2.5
 49
1.25
 49
-2.5
 49
1.25
 49
-2.5
  0
LTYPE
  2
DOT
 70
    64
  3
-   -   -   -   -   -   -   -   
 72
    65
 73
     2
 40
2.5
 49
0.625
 49
-1.875
  0
LTYPE
  2
DUMMY
 70
    64
  3
ダミー
 72
    65
 73
     0
 40
0.0
  0
LTYPE
  2
RAND1
 70
    64
  3
ランダム線1
 72
    65
 73
     4
 40
10.0
 49
1.0
 49
-2.0
 49
3.0
 49
-4.0
  0
LTYPE
  2
RAND2
 70
    64
  3
ランダム線2
 72
    65
 73
     4
 40
14.0
 49
2.0
 49
-3.0
 49
4.0
 49
-5.0
  0
LTYPE
  2
RAND3
 70
    64
  3
ランダム線3
 72
    65
 73
     4
 40
18.0
 49
3.0
 49
-4.0
 49
5.0
 49
-6.0
  0
LTYPE
  2
RAND4
 70
    64
  3
ランダム線4
 72
    65
 73
     4
 40
22.0
 49
4.0
 49
-5.0
 49
6.0
 49
-7.0
  0
LTYPE
  2
RAND5
 70
    64
  3
ランダム線5
 72
    65
 73
     4
 40
26.0
 49
5.0
 49
-6.0
 49
7.0
 49
-8.0
  0
LTYPE
  2
LONG1
 70
    64
  3
----------  --  ----------  --  
 72
    65
 73
     4
 40
40.0
 49
32.5
 49
-2.5
 49
2.5
 49
-2.5
  0
LTYPE
  2
LONG2
 70
    64
  3
--------  -  -  --------  -  -  
 72
    65
 73
     6
 40
40.0
 49
30.0
 49
-2.5
 49
1.25
 49
-2.5
 49
1.25
 49
-2.5
  0
LTYPE
  2
LONG3
 70
    64
  3
+++++++++++++++..+++++++++++++++
 72
    65
 73
     2
 40
40.0
 49
37.5
 49
-2.5
  0
LTYPE
  2
LONG4
 70
    64
  3
+++++++++++++++..+++++++++++++++
 72
    65
 73
     2
 40
80.0
 49
75.0
 49
-5.0
  0
LTYPE
  2
LONG5
 70
    64
  3
----------  --  ----------  --  
 72
    65
 73
     4
 40
60.0
 49
37.5
 49
-7.5
 49
7.5
 49
-7.5
  0
LTYPE
  2
dashed
 70
   64
  3
-------   -------------   ------
 72
   65
 73
    2
 40
7.5
 49
6
 49
-1.5
  0
LTYPE
  2
dashed_spaced
 70
   64
  3
----        --------        ----
 72
   65
 73
    2
 40
12
 49
6
 49
-6
  0
LTYPE
  2
long_dashed_dotted
 70
   64
  3
------------- --- --------------
 72
   65
 73
    4
 40
15.25
 49
12
 49
-1.5
 49
0.25
 49
-1.5
  0
LTYPE
  2
long_dashed_double-dotted
 70
   64
  3
----------- --- --- ------------
 72
   65
 73
    6
 40
17
 49
12
 49
-1.5
 49
0.25
 49
-1.5
 49
0.25
 49
-1.5
  0
LTYPE
  2
long_dashed_triplicate-dotted
 70
   64
  3
--------- --- --- --- ----------
 72
   65
 73
    8
 40
18.75
 49
12
 49
-1.5
 49
0.25
 49
-1.5
 49
0.25
 49
-1.5
 49
0.25
 49
-1.5
  0
LTYPE
  2
dotted
 70
   64
  3
   -       -       -       -    
 72
   65
 73
    2
 40
1.75
 49
0.25
 49
-1.5
  0
LTYPE
  2
chain
 70
   64
  3
-------------- -- --------------
 72
   65
 73
    4
 40
18.5
 49
12
 49
-1.5
 49
3.5
 49
-1.5
  0
LTYPE
  2
chain_double_dash
 70
   64
  3
------------ -- -- -------------
 72
   65
 73
    6
 40
23.5
 49
12
 49
-1.5
 49
3.5
 49
-1.5
 49
3.5
 49
-1.5
  0
LTYPE
  2
dashed_dotted
 70
   64
  3
-----------     -     ----------
 72
   65
 73
    4
 40
9.25
 49
6
 49
-1.5
 49
0.25
 49
-1.5
  0
LTYPE
  2
double-dashed_dotted
 70
   64
  3
------   -----------   -   -----
 72
   65
 73
    6
 40
16.75
 49
6
 49
-1.5
 49
6
 49
-1.5
 49
0.25
 49
-1.5
  0
LTYPE
  2
dashed_double-dotted
 70
   64
  3
---------    -    -    ---------
 72
   65
 73
    6
 40
11
 49
6
 49
-1.5
 49
0.25
 49
-1.5
 49
0.25
 49
-1.5
  0
LTYPE
  2
double-dashed_double-dotted
 70
   64
  3
-----   ---------   -   -   ----
 72
   65
 73
    8
 40
18.5
 49
6
 49
-1.5
 49
6
 49
-1.5
 49
0.25
 49
-1.5
 49
0.25
 49
-1.5
  0
LTYPE
  2
dashed_triplicate-dotted
 70
   64
  3
-------    -    -    -    ------
 72
   65
 73
    8
 40
12.75
 49
6
 49
-1.5
 49
0.25
 49
-1.5
 49
0.25
 49
-1.5
 49
0.25
 49
-1.5
  0
LTYPE
  2
double-dashed_triplicate-dotted
 70
   64
  3
-----  ---------  -  -  -  -----
 72
   65
 73
   10
 40
20.25
 49
6
 49
-1.5
 49
6
 49
-1.5
 49
0.25
 49
-1.5
 49
0.25
 49
-1.5
 49
0.25
 49
-1.5
  0
LTYPE
  2
undefined
 70
   64
  3
--------------------------------
 72
   65
 73
    0
 40
0
  0
ENDTAB
  0
TABLE
  2
STYLE
  5
3
100
AcDbSymbolTable
 70
     1
  0
STYLE
  5
10
100
AcDbSymbolTableRecord
100
AcDbTextStyleTableRecord
  2
STANDARD
 70
     0
 40
0.0
 41
1.0
 50
0.0
 71
     0
 42
0.2
  3
txt
  4
bigfont.shx
  0
STYLE
  5
26
100
AcDbSymbolTableRecord
100
AcDbTextStyleTableRecord
  2
TATEGAKI
 70
    68
 40
0.0
 41
1.0
 50
0.0
 71
     0
 42
1.0
  3
txt
  4
bigfont.shx
  0
ENDTAB
  0
TABLE
  2
LAYER
 70
    2
  0
LAYER
  2
_0-0_
 70
   64
 62
    7
  6
CONTINUOUS
  0
LAYER
  2
ADD_LINE
 70
   64
 62
    7
  6
CONTINUOUS
  0
ENDTAB
  0
ENDSEC
  0
SECTION
  2
BLOCKS
  0
ENDSEC
  0
SECTION
  2
ENTITIES
  0
LINE
  8
_0-0_
  6
CONTINUOUS
 62
    5
 10
146.90580197173307
 20
69.915942245439737
 11
144.36580197173305
 21
69.915942245439737
  0
LINE
  8
_0-0_
  6
CONTINUOUS
 62
    1
 10
212.94580197173309
 20
100.41404040494893
 11
124.04580197173307
 21
100.41404040494893
  0
LINE
  8
_0-0_
  6
CONTINUOUS
 62
    1
 10
124.04580197173307
 20
100.41404040494893
 11
124.04580197173307
 21
11.437844085930543
  0
LINE
  8
_0-0_
  6
CONTINUOUS
 62
    1
 10
124.04580197173307
 20
11.437844085930543
 11
212.94580197173309
 21
11.437844085930543
  0
LINE
  8
_0-0_
  6
CONTINUOUS
 62
    1
 10
212.94580197173309
 20
11.437844085930543
 11
212.94580197173309
 21
100.41404040494893
  0
CIRCLE
  8
_0-0_
  6
CONTINUOUS
 62
    1
 10
177.38580197173306
 20
96.604040404948961
 40
0.5
  0
CIRCLE
  8
_0-0_
  6
CONTINUOUS
 62
    1
 10
174.84580197173307
 20
96.604040404948961
 40
0.5
  0
CIRCLE
  8
_0-0_
  6
CONTINUOUS
 62
    1
 10
172.30580197173305
 20
96.604040404948961
 40
0.5
  0
CIRCLE
  8
_0-0_
  6
CONTINUOUS
 62
    1
 10
169.76580197173305
 20
96.604040404948961
 40
0.5
  0
CIRCLE
  8
_0-0_
  6
CONTINUOUS
 62
    1
 10
167.22580197173306
 20
96.604040404948961
 40
0.5
  0
CIRCLE
  8
_0-0_
  6
CONTINUOUS
 62
    1
 10
164.68580197173307
 20
96.604040404948961
 40
0.5
  0
CIRCLE
  8
_0-0_
  6
CONTINUOUS
 62
    1
 10
162.14580197173308
 20
96.604040404948961
 40
0.5
  0
CIRCLE
  8
_0-0_
  6
CONTINUOUS
 62
    1
 10
159.60580197173306
 20
96.604040404948961
 40
0.5
  0
CIRCLE
  8
_0-0_
  6
CONTINUOUS
 62
    1
 10
155.79580197173306
 20
91.524040404948948
 40
0.5
  0
CIRCLE
  8
_0-0_
  6
CONTINUOUS
 62
    1
 10
153.25580197173306
 20
91.524040404948948
 40
0.5
  0
CIRCLE
  8
_0-0_
  6
CONTINUOUS
 62
    1
 10
150.71580197173307
 20
91.524040404948948
 40
0.5
  0
CIRCLE
  8
_0-0_
  6
CONTINUOUS
 62
    1
 10
174.84580197173307
 20
91.524040404948948
 40
0.5
  0
CIRCLE
  8
_0-0_
  6
CONTINUOUS
 62
    1
 10
177.38580197173306
 20
91.524040404948948
 40
0.5
  0
CIRCLE
  8
_0-0_
  6
CONTINUOUS
 62
    1
 10
179.92580197173305
 20
91.524040404948948
 40
0.5
  0
CIRCLE
  8
_0-0_
  6
CONTINUOUS
 62
    1
 10
209.13580197173306
 20
88.984040404948956
 40
0.5
  0
CIRCLE
  8
_0-0_
  6
CONTINUOUS
 62
    1
 10
209.13580197173306
 20
86.444040404948936
 40
0.5
  0
CIRCLE
  8
_0-0_
  6
CONTINUOUS
 62
    1
 10
209.13580197173306
 20
83.904040404948944
 40
0.5
  0
CIRCLE
  8
_0-0_
  6
CONTINUOUS
 62
    1
 10
200.24580197173307
 20
86.444040404948936
 40
0.5
  0
CIRCLE
  8
_0-0_
  6
CONTINUOUS
 62
    1
 10
209.13580197173306
 20
76.284040404948939
 40
0.5
  0
CIRCLE
  8
_0-0_
  6
CONTINUOUS
 62
    1
 10
206.59580197173307
 20
76.284040404948939
 40
0.5
  0
CIRCLE
  8
_0-0_
  6
CONTINUOUS
 62
    1
 10
209.13580197173306
 20
73.72594224543974
 40
0.5
  0
CIRCLE
  8
_0-0_
  6
CONTINUOUS
 62
    1
 10
206.59580197173307
 20
73.72594224543974
 40
0.5
  0
CIRCLE
  8
_0-0_
  6
CONTINUOUS
 62
    1
 10
209.13580197173306
 20
71.185942245439747
 40
0.5
  0
CIRCLE
  8
_0-0_
  6
CONTINUOUS
 62
    1
 10
209.13580197173306
 20
58.485942245439745
 40
0.5
  0
CIRCLE
  8
_0-0_
  6
CONTINUOUS
 62
    1
 10
209.13580197173306
 20
55.945942245439738
 40
0.5
  0
CIRCLE
  8
_0-0_
  6
CONTINUOUS
 62
    1
 10
209.13580197173306
 20
53.405942245439746
 40
0.5
  0
CIRCLE
  8
_0-0_
  6
CONTINUOUS
 62
    1
 10
200.24580197173307
 20
55.945942245439738
 40
0.5
  0
CIRCLE
  8
_0-0_
  6
CONTINUOUS
 62
    1
 10
179.92580197173305
 20
63.565942245439743
 40
0.5
  0
CIRCLE
  8
_0-0_
  6
CONTINUOUS
 62
    1
 10
177.38580197173306
 20
63.565942245439743
 40
0.5
  0
CIRCLE
  8
_0-0_
  6
CONTINUOUS
 62
    1
 10
174.84580197173307
 20
63.565942245439743
 40
0.5
  0
CIRCLE
  8
_0-0_
  6
CONTINUOUS
 62
    1
 10
172.30580197173305
 20
63.565942245439743
 40
0.5
  0
CIRCLE
  8
_0-0_
  6
CONTINUOUS
 62
    1
 10
169.76580197173305
 20
63.565942245439743
 40
0.5
  0
CIRCLE
  8
_0-0_
  6
CONTINUOUS
 62
    1
 10
169.76580197173305
 20
66.105942245439735
 40
0.5
  0
CIRCLE
  8
_0-0_
  6
CONTINUOUS
 62
    1
 10
169.76580197173305
 20
68.645942245439755
 40
0.5
  0
CIRCLE
  8
_0-0_
  6
CONTINUOUS
 62
    1
 10
167.22580197173306
 20
63.565942245439743
 40
0.5
  0
CIRCLE
  8
_0-0_
  6
CONTINUOUS
 62
    1
 10
164.68580197173307
 20
63.565942245439743
 40
0.5
  0
CIRCLE
  8
_0-0_
  6
CONTINUOUS
 62
    1
 10
162.14580197173308
 20
63.565942245439743
 40
0.5
  0
CIRCLE
  8
_0-0_
  6
CONTINUOUS
 62
    1
 10
159.60580197173306
 20
63.565942245439743
 40
0.5
  0
CIRCLE
  8
_0-0_
  6
CONTINUOUS
 62
    1
 10
162.14580197173308
 20
76.284040404948939
 40
0.5
  0
CIRCLE
  8
_0-0_
  6
CONTINUOUS
 62
    1
 10
164.68580197173307
 20
73.72594224543974
 40
0.5
  0
CIRCLE
  8
_0-0_
  6
CONTINUOUS
 62
    1
 10
155.79580197173306
 20
63.565942245439743
 40
0.5
  0
CIRCLE
  8
_0-0_
  6
CONTINUOUS
 62
    1
 10
153.25580197173306
 20
63.565942245439743
 40
0.5
  0
CIRCLE
  8
_0-0_
  6
CONTINUOUS
 62
    1
 10
150.71580197173307
 20
63.565942245439743
 40
0.5
  0
CIRCLE
  8
_0-0_
  6
CONTINUOUS
 62
    1
 10
148.17580197173305
 20
63.565942245439743
 40
0.5
  0
CIRCLE
  8
_0-0_
  6
CONTINUOUS
 62
    1
 10
145.63580197173306
 20
63.565942245439743
 40
0.5
  0
CIRCLE
  8
_0-0_
  6
CONTINUOUS
 62
    1
 10
143.09580197173307
 20
63.565942245439743
 40
0.5
  0
CIRCLE
  8
_0-0_
  6
CONTINUOUS
 62
    1
 10
140.55580197173305
 20
63.565942245439743
 40
0.5
  0
CIRCLE
  8
_0-0_
  6
CONTINUOUS
 62
    1
 10
138.01580197173308
 20
63.565942245439743
 40
0.5
  0
CIRCLE
  8
_0-0_
  6
CONTINUOUS
 62
    1
 10
135.47580197173306
 20
63.565942245439743
 40
0.5
  0
CIRCLE
  8
_0-0_
  6
CONTINUOUS
 62
    1
 10
145.63580197173306
 20
68.645942245439755
 40
0.5
  0
CIRCLE
  8
_0-0_
  6
CONTINUOUS
 62
    1
 10
129.12580197173307
 20
96.604040404948961
 40
0.5
  0
CIRCLE
  8
_0-0_
  6
CONTINUOUS
 62
    1
 10
126.58580197173308
 20
96.604040404948961
 40
0.5
  0
CIRCLE
  8
_0-0_
  6
CONTINUOUS
 62
    1
 10
129.12580197173307
 20
94.06404040494894
 40
0.5
  0
CIRCLE
  8
_0-0_
  6
CONTINUOUS
 62
    1
 10
126.58580197173308
 20
94.06404040494894
 40
0.5
  0
CIRCLE
  8
_0-0_
  6
CONTINUOUS
 62
    1
 10
129.12580197173307
 20
91.524040404948948
 40
0.5
  0
CIRCLE
  8
_0-0_
  6
CONTINUOUS
 62
    1
 10
126.58580197173308
 20
91.524040404948948
 40
0.5
  0
CIRCLE
  8
_0-0_
  6
CONTINUOUS
 62
    1
 10
129.12580197173307
 20
88.984040404948956
 40
0.5
  0
CIRCLE
  8
_0-0_
  6
CONTINUOUS
 62
    1
 10
126.58580197173308
 20
88.984040404948956
 40
0.5
  0
CIRCLE
  8
_0-0_
  6
CONTINUOUS
 62
    1
 10
129.12580197173307
 20
86.444040404948936
 40
0.5
  0
CIRCLE
  8
_0-0_
  6
CONTINUOUS
 62
    1
 10
126.58580197173308
 20
86.444040404948936
 40
0.5
  0
CIRCLE
  8
_0-0_
  6
CONTINUOUS
 62
    1
 10
129.12580197173307
 20
83.904040404948944
 40
0.5
  0
CIRCLE
  8
_0-0_
  6
CONTINUOUS
 62
    1
 10
126.58580197173308
 20
83.904040404948944
 40
0.5
  0
CIRCLE
  8
_0-0_
  6
CONTINUOUS
 62
    1
 10
129.12580197173307
 20
81.364040404948938
 40
0.5
  0
CIRCLE
  8
_0-0_
  6
CONTINUOUS
 62
    1
 10
126.58580197173308
 20
81.364040404948938
 40
0.5
  0
CIRCLE
  8
_0-0_
  6
CONTINUOUS
 62
    1
 10
129.12580197173307
 20
78.824040404948946
 40
0.5
  0
CIRCLE
  8
_0-0_
  6
CONTINUOUS
 62
    1
 10
126.58580197173308
 20
78.824040404948946
 40
0.5
  0
CIRCLE
  8
_0-0_
  6
CONTINUOUS
 62
    1
 10
129.12580197173307
 20
76.284040404948939
 40
0.5
  0
CIRCLE
  8
_0-0_
  6
CONTINUOUS
 62
    1
 10
126.58580197173308
 20
76.284040404948939
 40
0.5
  0
CIRCLE
  8
_0-0_
  6
CONTINUOUS
 62
    1
 10
129.12580197173307
 20
73.72594224543974
 40
0.5
  0
CIRCLE
  8
_0-0_
  6
CONTINUOUS
 62
    1
 10
126.58580197173308
 20
73.72594224543974
 40
0.5
  0
CIRCLE
  8
_0-0_
  6
CONTINUOUS
 62
    1
 10
129.12580197173307
 20
71.185942245439747
 40
0.5
  0
CIRCLE
  8
_0-0_
  6
CONTINUOUS
 62
    1
 10
126.58580197173308
 20
71.185942245439747
 40
0.5
  0
CIRCLE
  8
_0-0_
  6
CONTINUOUS
 62
    1
 10
129.12580197173307
 20
68.645942245439755
 40
0.5
  0
CIRCLE
  8
_0-0_
  6
CONTINUOUS
 62
    1
 10
126.58580197173308
 20
68.645942245439755
 40
0.5
  0
CIRCLE
  8
_0-0_
  6
CONTINUOUS
 62
    1
 10
129.12580197173307
 20
66.105942245439735
 40
0.5
  0
CIRCLE
  8
_0-0_
  6
CONTINUOUS
 62
    1
 10
126.58580197173308
 20
66.105942245439735
 40
0.5
  0
CIRCLE
  8
_0-0_
  6
CONTINUOUS
 62
    1
 10
129.12580197173307
 20
63.565942245439743
 40
0.5
  0
CIRCLE
  8
_0-0_
  6
CONTINUOUS
 62
    1
 10
126.58580197173308
 20
63.565942245439743
 40
0.5
  0
CIRCLE
  8
_0-0_
  6
CONTINUOUS
 62
    1
 10
129.12580197173307
 20
61.025942245439744
 40
0.5
  0
CIRCLE
  8
_0-0_
  6
CONTINUOUS
 62
    1
 10
126.58580197173308
 20
61.025942245439744
 40
0.5
  0
CIRCLE
  8
_0-0_
  6
CONTINUOUS
 62
    1
 10
129.12580197173307
 20
58.485942245439745
 40
0.5
  0
CIRCLE
  8
_0-0_
  6
CONTINUOUS
 62
    1
 10
126.58580197173308
 20
58.485942245439745
 40
0.5
  0
CIRCLE
  8
_0-0_
  6
CONTINUOUS
 62
    1
 10
129.12580197173307
 20
55.945942245439738
 40
0.5
  0
CIRCLE
  8
_0-0_
  6
CONTINUOUS
 62
    1
 10
126.58580197173308
 20
55.945942245439738
 40
0.5
  0
CIRCLE
  8
_0-0_
  6
CONTINUOUS
 62
    1
 10
126.58580197173308
 20
53.405942245439746
 40
0.5
  0
CIRCLE
  8
_0-0_
  6
CONTINUOUS
 62
    1
 10
129.12580197173307
 20
53.405942245439746
 40
0.5
  0
CIRCLE
  8
_0-0_
  6
CONTINUOUS
 62
    1
 10
131.66580197173306
 20
48.325942245439748
 40
0.5
  0
CIRCLE
  8
_0-0_
  6
CONTINUOUS
 62
    1
 10
134.20580197173308
 20
48.325942245439748
 40
0.5
  0
CIRCLE
  8
_0-0_
  6
CONTINUOUS
 62
    1
 10
136.74580197173307
 20
48.325942245439748
 40
0.5
  0
CIRCLE
  8
_0-0_
  6
CONTINUOUS
 62
    1
 10
139.28580197173306
 20
48.325942245439748
 40
0.5
  0
CIRCLE
  8
_0-0_
  6
CONTINUOUS
 62
    1
 10
141.82580197173309
 20
48.325942245439748
 40
0.5
  0
CIRCLE
  8
_0-0_
  6
CONTINUOUS
 62
    1
 10
149.44580197173306
 20
48.325942245439748
 40
0.5
  0
CIRCLE
  8
_0-0_
  6
CONTINUOUS
 62
    1
 10
146.90580197173307
 20
48.325942245439748
 40
0.5
  0
CIRCLE
  8
_0-0_
  6
CONTINUOUS
 62
    1
 10
144.36580197173305
 20
48.325942245439748
 40
0.5
  0
CIRCLE
  8
_0-0_
  6
CONTINUOUS
 62
    1
 10
134.20580197173308
 20
52.13594224543975
 40
0.5
  0
CIRCLE
  8
_0-0_
  6
CONTINUOUS
 62
    1
 10
136.74580197173307
 20
52.13594224543975
 40
0.5
  0
CIRCLE
  8
_0-0_
  6
CONTINUOUS
 62
    1
 10
141.82580197173309
 20
52.13594224543975
 40
0.5
  0
CIRCLE
  8
_0-0_
  6
CONTINUOUS
 62
    1
 10
143.09580197173307
 20
55.945942245439738
 40
0.5
  0
CIRCLE
  8
_0-0_
  6
CONTINUOUS
 62
    1
 10
141.82580197173309
 20
58.485942245439745
 40
0.5
  0
CIRCLE
  8
_0-0_
  6
CONTINUOUS
 62
    1
 10
150.71580197173307
 20
61.660942245439742
 40
0.5
  0
CIRCLE
  8
_0-0_
  6
CONTINUOUS
 62
    1
 10
150.71580197173307
 20
59.755942245439741
 40
0.5
  0
CIRCLE
  8
_0-0_
  6
CONTINUOUS
 62
    1
 10
150.71580197173307
 20
57.215942245439749
 40
0.5
  0
CIRCLE
  8
_0-0_
  6
CONTINUOUS
 62
    1
 10
150.71580197173307
 20
53.405942245439746
 40
0.5
  0
CIRCLE
  8
_0-0_
  6
CONTINUOUS
 62
    1
 10
146.90580197173307
 20
52.13594224543975
 40
0.5
  0
CIRCLE
  8
_0-0_
  6
CONTINUOUS
 62
    1
 10
155.79580197173306
 20
55.31094224543974
 40
0.5
  0
CIRCLE
  8
_0-0_
  6
CONTINUOUS
 62
    1
 10
158.97080197173307
 20
59.755942245439741
 40
0.5
  0
CIRCLE
  8
_0-0_
  6
CONTINUOUS
 62
    1
 10
158.97080197173307
 20
57.215942245439741
 40
0.5
  0
CIRCLE
  8
_0-0_
  6
CONTINUOUS
 62
    1
 10
158.97080197173307
 20
53.387844085930539
 40
0.5
  0
CIRCLE
  8
_0-0_
  6
CONTINUOUS
 62
    1
 10
174.84580197173307
 20
61.660942245439742
 40
0.5
  0
CIRCLE
  8
_0-0_
  6
CONTINUOUS
 62
    1
 10
174.84580197173307
 20
53.405942245439746
 40
0.5
  0
CIRCLE
  8
_0-0_
  6
CONTINUOUS
 62
    1
 10
164.68580197173307
 20
53.405942245439746
 40
0.5
  0
CIRCLE
  8
_0-0_
  6
CONTINUOUS
 62
    1
 10
174.84580197173307
 20
45.785942245439742
 40
0.5
  0
CIRCLE
  8
_0-0_
  6
CONTINUOUS
 62
    1
 10
172.30580197173305
 20
48.325942245439748
 40
0.5
  0
CIRCLE
  8
_0-0_
  6
CONTINUOUS
 62
    1
 10
169.76580197173305
 20
48.325942245439748
 40
0.5
  0
CIRCLE
  8
_0-0_
  6
CONTINUOUS
 62
    1
 10
167.22580197173306
 20
48.325942245439748
 40
0.5
  0
CIRCLE
  8
_0-0_
  6
CONTINUOUS
 62
    1
 10
164.68580197173307
 20
48.325942245439748
 40
0.5
  0
CIRCLE
  8
_0-0_
  6
CONTINUOUS
 62
    1
 10
162.14580197173308
 20
48.325942245439748
 40
0.5
  0
CIRCLE
  8
_0-0_
  6
CONTINUOUS
 62
    1
 10
159.60580197173306
 20
48.325942245439748
 40
0.5
  0
CIRCLE
  8
_0-0_
  6
CONTINUOUS
 62
    1
 10
157.06580197173307
 20
48.325942245439748
 40
0.5
  0
CIRCLE
  8
_0-0_
  6
CONTINUOUS
 62
    1
 10
154.52580197173307
 20
48.325942245439748
 40
0.5
  0
CIRCLE
  8
_0-0_
  6
CONTINUOUS
 62
    1
 10
177.38580197173306
 20
48.325942245439748
 40
0.5
  0
CIRCLE
  8
_0-0_
  6
CONTINUOUS
 62
    1
 10
179.92580197173305
 20
48.325942245439748
 40
0.5
  0
CIRCLE
  8
_0-0_
  6
CONTINUOUS
 62
    1
 10
182.46580197173307
 20
48.325942245439748
 40
0.5
  0
CIRCLE
  8
_0-0_
  6
CONTINUOUS
 62
    1
 10
185.00580197173306
 20
48.325942245439748
 40
0.5
  0
CIRCLE
  8
_0-0_
  6
CONTINUOUS
 62
    1
 10
187.54580197173306
 20
48.325942245439748
 40
0.5
  0
CIRCLE
  8
_0-0_
  6
CONTINUOUS
 62
    1
 10
190.08580197173308
 20
48.325942245439748
 40
0.5
  0
CIRCLE
  8
_0-0_
  6
CONTINUOUS
 62
    1
 10
192.62580197173307
 20
48.325942245439748
 40
0.5
  0
CIRCLE
  8
_0-0_
  6
CONTINUOUS
 62
    1
 10
134.20580197173308
 20
35.585942245439739
 40
0.5
  0
CIRCLE
  8
_0-0_
  6
CONTINUOUS
 62
    1
 10
134.20580197173308
 20
33.045942245439733
 40
0.5
  0
CIRCLE
  8
_0-0_
  6
CONTINUOUS
 62
    1
 10
134.20580197173308
 20
30.505942245439744
 40
0.5
  0
CIRCLE
  8
_0-0_
  6
CONTINUOUS
 62
    1
 10
131.66580197173306
 20
22.885942245439743
 40
0.5
  0
CIRCLE
  8
_0-0_
  6
CONTINUOUS
 62
    1
 10
131.66580197173306
 20
15.247844085930538
 40
0.5
  0
CIRCLE
  8
_0-0_
  6
CONTINUOUS
 62
    1
 10
140.55580197173305
 20
22.885942245439743
 40
0.5
  0
CIRCLE
  8
_0-0_
  6
CONTINUOUS
 62
    1
 10
140.55580197173305
 20
27.965942245439738
 40
0.5
  0
CIRCLE
  8
_0-0_
  6
CONTINUOUS
 62
    1
 10
148.17580197173305
 20
27.965942245439738
 40
0.5
  0
CIRCLE
  8
_0-0_
  6
CONTINUOUS
 62
    1
 10
148.17580197173305
 20
22.885942245439743
 40
0.5
  0
CIRCLE
  8
_0-0_
  6
CONTINUOUS
 62
    1
 10
153.25580197173306
 20
22.885942245439743
 40
0.5
  0
CIRCLE
  8
_0-0_
  6
CONTINUOUS
 62
    1
 10
153.25580197173306
 20
27.965942245439738
 40
0.5
  0
CIRCLE
  8
_0-0_
  6
CONTINUOUS
 62
    1
 10
160.87580197173307
 20
27.965942245439738
 40
0.5
  0
CIRCLE
  8
_0-0_
  6
CONTINUOUS
 62
    1
 10
160.87580197173307
 20
22.885942245439743
 40
0.5
  0
CIRCLE
  8
_0-0_
  6
CONTINUOUS
 62
    1
 10
178.65580197173307
 20
22.885942245439743
 40
0.5
  0
CIRCLE
  8
_0-0_
  6
CONTINUOUS
 62
    1
 10
178.65580197173307
 20
27.965942245439738
 40
0.5
  0
CIRCLE
  8
_0-0_
  6
CONTINUOUS
 62
    1
 10
186.27580197173307
 20
27.965942245439738
 40
0.5
  0
CIRCLE
  8
_0-0_
  6
CONTINUOUS
 62
    1
 10
186.27580197173307
 20
22.885942245439743
 40
0.5
  0
CIRCLE
  8
_0-0_
  6
CONTINUOUS
 62
    1
 10
188.81580197173307
 20
30.505942245439744
 40
0.5
  0
CIRCLE
  8
_0-0_
  6
CONTINUOUS
 62
    1
 10
188.81580197173307
 20
35.585942245439739
 40
0.5
  0
CIRCLE
  8
_0-0_
  6
CONTINUOUS
 62
    1
 10
196.43580197173307
 20
35.585942245439739
 40
0.5
  0
CIRCLE
  8
_0-0_
  6
CONTINUOUS
 62
    1
 10
196.43580197173307
 20
30.505942245439744
 40
0.5
  0
CIRCLE
  8
_0-0_
  6
CONTINUOUS
 62
    1
 10
198.97580197173306
 20
27.965942245439738
 40
0.5
  0
CIRCLE
  8
_0-0_
  6
CONTINUOUS
 62
    1
 10
206.59580197173307
 20
27.965942245439738
 40
0.5
  0
CIRCLE
  8
_0-0_
  6
CONTINUOUS
 62
    1
 10
206.59580197173307
 20
22.885942245439743
 40
0.5
  0
CIRCLE
  8
_0-0_
  6
CONTINUOUS
 62
    1
 10
198.97580197173306
 20
22.885942245439743
 40
0.5
  0
CIRCLE
  8
_0-0_
  6
CONTINUOUS
 62
    1
 10
196.43580197173307
 20
20.345942245439744
 40
0.5
  0
CIRCLE
  8
_0-0_
  6
CONTINUOUS
 62
    1
 10
188.81580197173307
 20
20.345942245439744
 40
0.5
  0
CIRCLE
  8
_0-0_
  6
CONTINUOUS
 62
    1
 10
188.81580197173307
 20
15.247844085930538
 40
0.5
  0
CIRCLE
  8
_0-0_
  6
CONTINUOUS
 62
    1
 10
196.43580197173307
 20
15.247844085930538
 40
0.5
  0
CIRCLE
  8
_0-0_
  6
CONTINUOUS
 62
    1
 10
210.40580197173307
 20
13.977844085930542
 40
1.6000000000000001
  0
CIRCLE
  8
_0-0_
  6
CONTINUOUS
 62
    1
 10
126.58580197173308
 20
13.977844085930542
 40
1.6000000000000001
  0
LINE
  8
_0-0_
  6
CONTINUOUS
 62
    5
 10
207.86580197173305
 20
21.615942245439747
 11
207.86580197173305
 21
41.935942245439747
  0
LINE
  8
_0-0_
  6
CONTINUOUS
 62
    5
 10
207.86580197173305
 20
41.935942245439747
 11
160.87580197173307
 21
41.935942245439747
  0
LINE
  8
_0-0_
  6
CONTINUOUS
 62
    5
 10
160.87580197173307
 20
77.554040404948935
 11
210.40580197173307
 21
77.554040404948935
  0
LINE
  8
_0-0_
  6
CONTINUOUS
 62
    5
 10
210.40580197173307
 20
77.554040404948935
 11
210.40580197173307
 21
72.455942245439758
  0
LINE
  8
_0-0_
  6
CONTINUOUS
 62
    5
 10
210.40580197173307
 20
72.455942245439758
 11
165.95580197173308
 21
72.455942245439758
  0
LINE
  8
_0-0_
  6
CONTINUOUS
 62
    5
 10
165.95580197173308
 20
72.455942245439758
 11
165.95580197173308
 21
62.295942245439747
  0
LINE
  8
_0-0_
  6
CONTINUOUS
 62
    5
 10
165.95580197173308
 20
62.295942245439747
 11
160.87580197173307
 21
62.295942245439747
  0
LINE
  8
_0-0_
  6
CONTINUOUS
 62
    5
 10
160.79270391598061
 20
49.595942245439744
 11
153.25580197173306
 21
49.595942245439744
  0
LINE
  8
_0-0_
  6
CONTINUOUS
 62
    5
 10
153.25580197173306
 20
49.577844085930536
 11
153.25580197173306
 21
34.315942245439743
  0
LINE
  8
_0-0_
  6
CONTINUOUS
 62
    5
 10
197.70580197173305
 20
21.615942245439747
 11
197.70580197173305
 21
16.517844085930541
  0
LINE
  8
_0-0_
  6
CONTINUOUS
 62
    5
 10
197.70580197173305
 20
16.517844085930541
 11
179.92580197173305
 21
16.517844085930541
  0
LINE
  8
_0-0_
  6
CONTINUOUS
 62
    5
 10
179.92580197173305
 20
16.517844085930541
 11
179.92580197173305
 21
26.695942245439745
  0
LINE
  8
_0-0_
  6
CONTINUOUS
 62
    5
 10
179.92580197173305
 20
26.695942245439745
 11
132.93580197173307
 21
26.695942245439745
  0
LINE
  8
_0-0_
  6
CONTINUOUS
 62
    5
 10
132.93580197173307
 20
26.695942245439745
 11
132.93580197173307
 21
21.615942245439747
  0
LINE
  8
_0-0_
  6
CONTINUOUS
 62
    5
 10
132.93580197173307
 20
21.615942245439747
 11
130.39580197173308
 21
21.615942245439747
  0
LINE
  8
_0-0_
  6
CONTINUOUS
 62
    5
 10
130.39580197173308
 20
21.615942245439747
 11
130.39580197173308
 21
29.235942245439741
  0
LINE
  8
_0-0_
  6
CONTINUOUS
 62
    5
 10
130.39580197173308
 20
29.235942245439741
 11
132.93580197173307
 21
29.235942245439741
  0
LINE
  8
_0-0_
  6
CONTINUOUS
 62
    5
 10
132.93580197173307
 20
29.235942245439741
 11
132.93580197173307
 21
36.855942245439735
  0
LINE
  8
_0-0_
  6
CONTINUOUS
 62
    5
 10
132.93580197173307
 20
36.855942245439735
 11
140.55580197173305
 21
36.855942245439735
  0
LINE
  8
_0-0_
  6
CONTINUOUS
 62
    5
 10
140.55580197173305
 20
36.855942245439735
 11
140.55580197173305
 21
50.86594224543974
  0
LINE
  8
_0-0_
  6
CONTINUOUS
 62
    5
 10
140.55580197173305
 20
50.86594224543974
 11
150.71580197173307
 21
50.86594224543974
  0
LINE
  8
_0-0_
  6
CONTINUOUS
 62
    5
 10
143.09580197173307
 20
54.675942245439742
 11
143.09580197173307
 21
34.315942245439743
  0
LINE
  8
_0-0_
  6
CONTINUOUS
 62
    5
 10
143.09580197173307
 20
34.315942245439743
 11
132.93580197173307
 21
34.315942245439743
  0
LINE
  8
_0-0_
  6
CONTINUOUS
 62
    5
 10
139.28580197173306
 20
34.315942245439743
 11
139.28580197173306
 21
26.695942245439745
  0
LINE
  8
_0-0_
  6
CONTINUOUS
 62
    5
 10
145.63580197173306
 20
50.86594224543974
 11
145.63580197173306
 21
29.235942245439741
  0
LINE
  8
_0-0_
  6
CONTINUOUS
 62
    5
 10
149.44580197173306
 20
29.235942245439741
 11
145.63580197173306
 21
29.235942245439741
  0
LINE
  8
_0-0_
  6
CONTINUOUS
 62
    5
 10
149.44580197173306
 20
29.235942245439741
 11
149.44580197173306
 21
26.695942245439745
  0
LINE
  8
_0-0_
  6
CONTINUOUS
 62
    5
 10
132.93580197173307
 20
31.77594224543974
 11
135.47580197173306
 21
31.77594224543974
  0
LINE
  8
_0-0_
  6
CONTINUOUS
 62
    5
 10
135.47580197173306
 20
31.77594224543974
 11
135.47580197173306
 21
29.235942245439741
  0
LINE
  8
_0-0_
  6
CONTINUOUS
 62
    5
 10
135.47580197173306
 20
29.235942245439741
 11
132.93580197173307
 21
29.235942245439741
  0
LINE
  8
_0-0_
  6
CONTINUOUS
 62
    5
 10
148.17580197173305
 20
50.86594224543974
 11
148.17580197173305
 21
31.77594224543974
  0
LINE
  8
_0-0_
  6
CONTINUOUS
 62
    5
 10
148.17580197173305
 20
31.77594224543974
 11
151.98580197173305
 21
31.77594224543974
  0
LINE
  8
_0-0_
  6
CONTINUOUS
 62
    5
 10
151.98580197173305
 20
31.77594224543974
 11
151.98580197173305
 21
29.27594224543974
  0
LINE
  8
_0-0_
  6
CONTINUOUS
 62
    5
 10
151.98580197173305
 20
29.235942245439741
 11
162.14580197173308
 21
29.235942245439741
  0
LINE
  8
_0-0_
  6
CONTINUOUS
 62
    5
 10
162.14580197173308
 20
29.235942245439741
 11
162.14580197173308
 21
26.695942245439745
  0
LINE
  8
_0-0_
  6
CONTINUOUS
 62
    5
 10
179.92580197173305
 20
26.695942245439745
 11
179.92580197173305
 21
29.235942245439741
  0
LINE
  8
_0-0_
  6
CONTINUOUS
 62
    5
 10
179.92580197173305
 20
29.235942245439741
 11
164.68580197173307
 21
29.235942245439741
  0
LINE
  8
_0-0_
  6
CONTINUOUS
 62
    5
 10
164.68580197173307
 20
29.235942245439741
 11
164.68580197173307
 21
34.315942245439743
  0
LINE
  8
_0-0_
  6
CONTINUOUS
 62
    5
 10
164.68580197173307
 20
34.315942245439743
 11
150.71580197173307
 21
34.315942245439743
  0
LINE
  8
_0-0_
  6
CONTINUOUS
 62
    5
 10
150.71580197173307
 20
34.315942245439743
 11
150.71580197173307
 21
52.13594224543975
  0
LINE
  8
_0-0_
  6
CONTINUOUS
 62
    5
 10
150.71580197173307
 20
52.13594224543975
 11
157.06580197173307
 21
52.13594224543975
  0
LINE
  8
_0-0_
  6
CONTINUOUS
 62
    5
 10
157.06580197173307
 20
52.13594224543975
 11
157.06580197173307
 21
64.835942245439753
  0
LINE
  8
_0-0_
  6
CONTINUOUS
 62
    5
 10
157.06580197173307
 20
64.835942245439753
 11
149.44580197173306
 21
64.835942245439753
  0
LINE
  8
_0-0_
  6
CONTINUOUS
 62
    5
 10
149.44580197173306
 20
64.835942245439753
 11
149.44580197173306
 21
62.295942245439747
  0
LINE
  8
_0-0_
  6
CONTINUOUS
 62
    5
 10
146.90580197173307
 20
62.295942245439747
 11
146.90580197173307
 21
69.915942245439737
  0
LINE
  8
_0-0_
  6
CONTINUOUS
 62
    5
 10
144.36580197173305
 20
64.835942245439753
 11
136.74580197173307
 21
64.835942245439753
  0
LINE
  8
_0-0_
  6
CONTINUOUS
 62
    5
 10
136.74580197173307
 20
64.835942245439753
 11
136.74580197173307
 21
62.295942245439747
  0
LINE
  8
_0-0_
  6
CONTINUOUS
 62
    5
 10
136.74580197173307
 20
62.295942245439747
 11
125.31580197173307
 21
62.295942245439747
  0
LINE
  8
_0-0_
  6
CONTINUOUS
 62
    5
 10
141.82580197173309
 20
64.835942245439753
 11
141.82580197173309
 21
62.295942245439747
  0
LINE
  8
_0-0_
  6
CONTINUOUS
 62
    5
 10
141.82580197173309
 20
62.295942245439747
 11
139.28580197173306
 21
62.295942245439747
  0
LINE
  8
_0-0_
  6
CONTINUOUS
 62
    5
 10
139.28580197173306
 20
62.295942245439747
 11
139.28580197173306
 21
64.835942245439753
  0
LINE
  8
_0-0_
  6
CONTINUOUS
 62
    5
 10
155.79580197173306
 20
49.577844085930536
 11
155.79580197173306
 21
36.855942245439735
  0
LINE
  8
_0-0_
  6
CONTINUOUS
 62
    5
 10
155.79580197173306
 20
36.855942245439735
 11
182.46580197173307
 21
36.855942245439735
  0
LINE
  8
_0-0_
  6
CONTINUOUS
 62
    5
 10
182.46580197173307
 20
36.855942245439735
 11
182.46580197173307
 21
21.615942245439747
  0
LINE
  8
_0-0_
  6
CONTINUOUS
 62
    5
 10
182.46580197173307
 20
21.615942245439747
 11
207.86580197173305
 21
21.615942245439747
  0
LINE
  8
_0-0_
  6
CONTINUOUS
 62
    5
 10
158.33580197173308
 20
49.577844085930536
 11
158.33580197173308
 21
39.395942245439741
  0
LINE
  8
_0-0_
  6
CONTINUOUS
 62
    5
 10
158.33580197173308
 20
39.395942245439741
 11
197.70580197173305
 21
39.395942245439741
  0
LINE
  8
_0-0_
  6
CONTINUOUS
 62
    5
 10
197.70580197173305
 20
39.395942245439741
 11
197.70580197173305
 21
26.695942245439745
  0
LINE
  8
_0-0_
  6
CONTINUOUS
 62
    5
 10
197.70580197173305
 20
26.695942245439745
 11
207.86580197173305
 21
26.695942245439745
  0
LINE
  8
_0-0_
  6
CONTINUOUS
 62
    5
 10
197.70580197173305
 20
34.315942245439743
 11
182.46580197173307
 21
34.315942245439743
  0
LINE
  8
_0-0_
  6
CONTINUOUS
 62
    5
 10
187.54580197173306
 20
34.315942245439743
 11
187.54580197173306
 21
26.695942245439745
  0
LINE
  8
_0-0_
  6
CONTINUOUS
 62
    5
 10
187.54580197173306
 20
26.695942245439745
 11
182.46580197173307
 21
26.695942245439745
  0
LINE
  8
_0-0_
  6
CONTINUOUS
 62
    5
 10
130.39580197173308
 20
97.874040404948943
 11
130.39580197173308
 21
47.055942245439745
  0
LINE
  8
_0-0_
  6
CONTINUOUS
 62
    5
 10
130.39580197173308
 20
47.055942245439745
 11
140.55580197173305
 21
47.055942245439745
  0
LINE
  8
_0-0_
  6
CONTINUOUS
 62
    5
 10
125.31580197173307
 20
97.874040404948943
 11
125.31580197173307
 21
52.13594224543975
  0
LINE
  8
_0-0_
  6
CONTINUOUS
 62
    5
 10
130.39580197173308
 20
52.13594224543975
 11
124.04580197173307
 21
52.13594224543975
  0
LINE
  8
_0-0_
  6
CONTINUOUS
 62
    5
 10
125.31580197173307
 20
54.675942245439742
 11
130.39580197173308
 21
54.675942245439742
  0
LINE
  8
_0-0_
  6
CONTINUOUS
 62
    5
 10
130.39580197173308
 20
57.215942245439749
 11
125.31580197173307
 21
57.215942245439749
  0
LINE
  8
_0-0_
  6
CONTINUOUS
 62
    5
 10
125.31580197173307
 20
59.755942245439741
 11
130.39580197173308
 21
59.755942245439741
  0
LINE
  8
_0-0_
  6
CONTINUOUS
 62
    5
 10
130.39580197173308
 20
64.835942245439753
 11
125.31580197173307
 21
64.835942245439753
  0
LINE
  8
_0-0_
  6
CONTINUOUS
 62
    5
 10
130.39580197173308
 20
67.375942245439745
 11
125.31580197173307
 21
67.375942245439745
  0
LINE
  8
_0-0_
  6
CONTINUOUS
 62
    5
 10
130.39580197173308
 20
69.915942245439737
 11
125.31580197173307
 21
69.915942245439737
  0
LINE
  8
_0-0_
  6
CONTINUOUS
 62
    5
 10
130.39580197173308
 20
72.455942245439758
 11
125.31580197173307
 21
72.455942245439758
  0
LINE
  8
_0-0_
  6
CONTINUOUS
 62
    5
 10
130.39580197173308
 20
75.014040404948943
 11
125.31580197173307
 21
75.014040404948943
  0
LINE
  8
_0-0_
  6
CONTINUOUS
 62
    5
 10
125.31580197173307
 20
77.554040404948935
 11
130.39580197173308
 21
77.554040404948935
  0
LINE
  8
_0-0_
  6
CONTINUOUS
 62
    5
 10
130.39580197173308
 20
80.094040404948942
 11
125.31580197173307
 21
80.094040404948942
  0
LINE
  8
_0-0_
  6
CONTINUOUS
 62
    5
 10
125.31580197173307
 20
82.634040404948948
 11
130.39580197173308
 21
82.634040404948948
  0
LINE
  8
_0-0_
  6
CONTINUOUS
 62
    5
 10
130.39580197173308
 20
85.174040404948954
 11
125.31580197173307
 21
85.174040404948954
  0
LINE
  8
_0-0_
  6
CONTINUOUS
 62
    5
 10
125.31580197173307
 20
87.714040404948946
 11
130.39580197173308
 21
87.714040404948946
  0
LINE
  8
_0-0_
  6
CONTINUOUS
 62
    5
 10
130.39580197173308
 20
90.254040404948938
 11
125.31580197173307
 21
90.254040404948938
  0
LINE
  8
_0-0_
  6
CONTINUOUS
 62
    5
 10
125.31580197173307
 20
92.794040404948959
 11
130.39580197173308
 21
92.794040404948959
  0
LINE
  8
_0-0_
  6
CONTINUOUS
 62
    5
 10
130.39580197173308
 20
95.334040404948951
 11
125.31580197173307
 21
95.334040404948951
  0
LINE
  8
_0-0_
  6
CONTINUOUS
 62
    5
 10
125.31580197173307
 20
97.874040404948943
 11
130.39580197173308
 21
97.874040404948943
  0
LINE
  8
_0-0_
  6
CONTINUOUS
 62
    5
 10
127.85580197173307
 20
97.874040404948943
 11
127.85580197173307
 21
52.13594224543975
  0
LINE
  8
_0-0_
  6
CONTINUOUS
 62
    5
 10
154.52580197173307
 20
92.794040404948959
 11
151.98580197173305
 21
92.794040404948959
  0
LINE
  8
_0-0_
  6
CONTINUOUS
 62
    5
 10
151.98580197173305
 20
92.794040404948959
 11
151.98580197173305
 21
90.254040404948938
  0
LINE
  8
_0-0_
  6
CONTINUOUS
 62
    5
 10
151.98580197173305
 20
90.254040404948938
 11
154.52580197173307
 21
90.254040404948938
  0
LINE
  8
_0-0_
  6
CONTINUOUS
 62
    5
 10
154.52580197173307
 20
90.254040404948938
 11
154.52580197173307
 21
92.794040404948959
  0
LINE
  8
_0-0_
  6
CONTINUOUS
 62
    5
 10
158.33580197173308
 20
97.874040404948943
 11
178.65580197173307
 21
97.874040404948943
  0
LINE
  8
_0-0_
  6
CONTINUOUS
 62
    5
 10
178.65580197173307
 20
97.874040404948943
 11
178.65580197173307
 21
95.334040404948951
  0
LINE
  8
_0-0_
  6
CONTINUOUS
 62
    5
 10
178.65580197173307
 20
95.334040404948951
 11
176.11580197173305
 21
95.334040404948951
  0
LINE
  8
_0-0_
  6
CONTINUOUS
 62
    5
 10
176.11580197173305
 20
97.874040404948943
 11
176.11580197173305
 21
90.254040404948938
  0
LINE
  8
_0-0_
  6
CONTINUOUS
 62
    5
 10
173.57580197173306
 20
92.794040404948959
 11
173.57580197173306
 21
90.254040404948938
  0
LINE
  8
_0-0_
  6
CONTINUOUS
 62
    5
 10
173.57580197173306
 20
90.254040404948938
 11
210.40580197173307
 21
90.254040404948938
  0
LINE
  8
_0-0_
  6
CONTINUOUS
 62
    5
 10
173.57580197173306
 20
92.794040404948959
 11
181.19580197173306
 21
92.794040404948959
  0
LINE
  8
_0-0_
  6
CONTINUOUS
 62
    5
 10
181.19580197173306
 20
92.794040404948959
 11
181.19580197173306
 21
90.254040404948938
  0
LINE
  8
_0-0_
  6
CONTINUOUS
 62
    5
 10
178.65580197173307
 20
92.794040404948959
 11
178.65580197173307
 21
90.254040404948938
  0
LINE
  8
_0-0_
  6
CONTINUOUS
 62
    5
 10
173.57580197173306
 20
97.874040404948943
 11
173.57580197173306
 21
95.334040404948951
  0
LINE
  8
_0-0_
  6
CONTINUOUS
 62
    5
 10
173.57580197173306
 20
95.334040404948951
 11
158.33580197173308
 21
95.334040404948951
  0
LINE
  8
_0-0_
  6
CONTINUOUS
 62
    5
 10
158.33580197173308
 20
95.334040404948951
 11
158.33580197173308
 21
97.874040404948943
  0
LINE
  8
_0-0_
  6
CONTINUOUS
 62
    5
 10
160.87580197173307
 20
97.874040404948943
 11
160.87580197173307
 21
95.334040404948951
  0
LINE
  8
_0-0_
  6
CONTINUOUS
 62
    5
 10
163.41580197173306
 20
97.874040404948943
 11
163.41580197173306
 21
95.334040404948951
  0
LINE
  8
_0-0_
  6
CONTINUOUS
 62
    5
 10
165.95580197173308
 20
97.874040404948943
 11
165.95580197173308
 21
95.334040404948951
  0
LINE
  8
_0-0_
  6
CONTINUOUS
 62
    5
 10
168.49236638891097
 20
97.874040404948943
 11
168.49236638891097
 21
95.334040404948951
  0
LINE
  8
_0-0_
  6
CONTINUOUS
 62
    5
 10
171.03580197173306
 20
97.874040404948943
 11
171.03580197173306
 21
87.714040404948946
  0
LINE
  8
_0-0_
  6
CONTINUOUS
 62
    5
 10
171.03580197173306
 20
87.714040404948946
 11
210.40580197173307
 21
87.714040404948946
  0
LINE
  8
_0-0_
  6
CONTINUOUS
 62
    5
 10
198.97580197173306
 20
85.174040404948954
 11
210.40580197173307
 21
85.174040404948954
  0
LINE
  8
_0-0_
  6
CONTINUOUS
 62
    5
 10
210.40580197173307
 20
85.174040404948954
 11
210.40580197173307
 21
90.254040404948938
  0
LINE
  8
_0-0_
  6
CONTINUOUS
 62
    5
 10
198.97580197173306
 20
87.714040404948946
 11
198.97580197173306
 21
85.174040404948954
  0
LINE
  8
_0-0_
  6
CONTINUOUS
 62
    5
 10
210.40580197173307
 20
75.014040404948943
 11
163.41580197173306
 21
75.014040404948943
  0
LINE
  8
_0-0_
  6
CONTINUOUS
 62
    5
 10
163.41580197173306
 20
75.014040404948943
 11
163.41580197173306
 21
62.295942245439747
  0
LINE
  8
_0-0_
  6
CONTINUOUS
 62
    5
 10
210.40580197173307
 20
59.755942245439741
 11
210.40580197173307
 21
54.675942245439742
  0
LINE
  8
_0-0_
  6
CONTINUOUS
 62
    5
 10
210.40580197173307
 20
59.755942245439741
 11
207.86580197173305
 21
59.755942245439741
  0
LINE
  8
_0-0_
  6
CONTINUOUS
 62
    5
 10
207.86580197173305
 20
59.755942245439741
 11
207.86580197173305
 21
57.215942245439749
  0
LINE
  8
_0-0_
  6
CONTINUOUS
 62
    5
 10
210.40580197173307
 20
54.675942245439742
 11
186.27580197173307
 21
54.675942245439742
  0
LINE
  8
_0-0_
  6
CONTINUOUS
 62
    5
 10
186.27580197173307
 20
54.675942245439742
 11
186.27580197173307
 21
47.055942245439745
  0
LINE
  8
_0-0_
  6
CONTINUOUS
 62
    5
 10
210.40580197173307
 20
57.215942245439749
 11
181.19580197173306
 21
57.215942245439749
  0
CIRCLE
  8
_0-0_
  6
CONTINUOUS
 62
    1
 10
179.92580197173305
 20
55.31094224543974
 40
0.5
  0
LINE
  8
_0-0_
  6
CONTINUOUS
 62
    5
 10
181.19580197173306
 20
64.835942245439753
 11
181.19580197173306
 21
53.405942245439746
  0
LINE
  8
_0-0_
  6
CONTINUOUS
 62
    5
 10
178.65580197173307
 20
64.835942245439753
 11
178.65580197173307
 21
52.13594224543975
  0
LINE
  8
_0-0_
  6
CONTINUOUS
 62
    5
 10
176.11580197173305
 20
64.835942245439753
 11
176.11580197173305
 21
54.675942245439742
  0
LINE
  8
_0-0_
  6
CONTINUOUS
 62
    5
 10
176.11580197173305
 20
58.485942245439745
 11
173.57580197173306
 21
58.485942245439745
  0
LINE
  8
_0-0_
  6
CONTINUOUS
 62
    5
 10
181.19580197173306
 20
64.835942245439753
 11
173.57580197173306
 21
64.835942245439753
  0
LINE
  8
_0-0_
  6
CONTINUOUS
 62
    5
 10
173.57580197173306
 20
64.835942245439753
 11
173.57580197173306
 21
58.485942245439745
  0
LINE
  8
_0-0_
  6
CONTINUOUS
 62
    5
 10
181.19580197173306
 20
53.405942245439746
 11
178.65580197173307
 21
53.405942245439746
  0
LINE
  8
_0-0_
  6
CONTINUOUS
 62
    5
 10
176.11580197173305
 20
54.675942245439742
 11
173.57580197173306
 21
54.675942245439742
  0
LINE
  8
_0-0_
  6
CONTINUOUS
 62
    5
 10
173.57580197173306
 20
54.675942245439742
 11
173.57580197173306
 21
52.13594224543975
  0
LINE
  8
_0-0_
  6
CONTINUOUS
 62
    5
 10
178.65580197173307
 20
52.13594224543975
 11
171.03580197173306
 21
52.13594224543975
  0
LINE
  8
_0-0_
  6
CONTINUOUS
 62
    5
 10
171.03580197173306
 20
69.915942245439737
 11
171.03580197173306
 21
52.13594224543975
  0
LINE
  8
_0-0_
  6
CONTINUOUS
 62
    5
 10
171.03580197173306
 20
69.915942245439737
 11
168.49580197173307
 21
69.915942245439737
  0
LINE
  8
_0-0_
  6
CONTINUOUS
 62
    5
 10
168.49580197173307
 20
69.915942245439737
 11
168.49580197173307
 21
59.755942245439741
  0
LINE
  8
_0-0_
  6
CONTINUOUS
 62
    5
 10
168.49236638891097
 20
64.835942245439753
 11
165.95580197173308
 21
64.835942245439753
  0
LINE
  8
_0-0_
  6
CONTINUOUS
 62
    5
 10
168.49580197173307
 20
59.755942245439741
 11
163.41580197173306
 21
59.755942245439741
  0
LINE
  8
_0-0_
  6
CONTINUOUS
 62
    5
 10
163.41580197173306
 20
59.755942245439741
 11
163.41580197173306
 21
47.055942245439745
  0
LINE
  8
_0-0_
  6
CONTINUOUS
 62
    5
 10
165.95580197173308
 20
54.675942245439742
 11
163.41580197173306
 21
54.675942245439742
  0
LINE
  8
_0-0_
  6
CONTINUOUS
 62
    5
 10
165.95580197173308
 20
54.675942245439742
 11
165.95580197173308
 21
47.055942245439745
  0
LINE
  8
_0-0_
  6
CONTINUOUS
 62
    5
 10
193.89580197173308
 20
49.595942245439744
 11
186.27580197173307
 21
49.595942245439744
  0
LINE
  8
_0-0_
  6
CONTINUOUS
 62
    5
 10
193.89580197173308
 20
49.595942245439744
 11
193.89580197173308
 21
47.055942245439745
  0
LINE
  8
_0-0_
  6
CONTINUOUS
 62
    5
 10
193.89580197173308
 20
47.055942245439745
 11
183.73580197173305
 21
47.055942245439745
  0
LINE
  8
_0-0_
  6
CONTINUOUS
 62
    5
 10
191.35580197173306
 20
49.577844085930536
 11
191.35580197173306
 21
47.055942245439745
  0
LINE
  8
_0-0_
  6
CONTINUOUS
 62
    5
 10
188.81580197173307
 20
49.577844085930536
 11
188.81580197173307
 21
47.055942245439745
  0
LINE
  8
_0-0_
  6
CONTINUOUS
 62
    5
 10
183.73580197173305
 20
49.577844085930536
 11
183.73580197173305
 21
47.055942245439745
  0
LINE
  8
_0-0_
  6
CONTINUOUS
 62
    5
 10
160.87580197173307
 20
77.554040404948935
 11
160.87580197173307
 21
41.935942245439747
  0
LINE
  8
_0-0_
  6
CONTINUOUS
 62
    5
 10
183.73580197173305
 20
49.595942245439744
 11
165.95580197173308
 21
49.595942245439744
  0
LINE
  8
_0-0_
  6
CONTINUOUS
 62
    5
 10
178.65580197173307
 20
49.577844085930536
 11
178.65580197173307
 21
47.055942245439745
  0
LINE
  8
_0-0_
  6
CONTINUOUS
 62
    5
 10
178.65580197173307
 20
47.055942245439745
 11
176.11580197173305
 21
47.055942245439745
  0
LINE
  8
_0-0_
  6
CONTINUOUS
 62
    5
 10
176.11580197173305
 20
47.055942245439745
 11
176.11580197173305
 21
49.577844085930536
  0
LINE
  8
_0-0_
  6
CONTINUOUS
 62
    5
 10
173.57580197173306
 20
49.577844085930536
 11
173.57580197173306
 21
47.055942245439745
  0
LINE
  8
_0-0_
  6
CONTINUOUS
 62
    5
 10
173.57580197173306
 20
47.055942245439745
 11
160.87580197173307
 21
47.055942245439745
  0
LINE
  8
_0-0_
  6
CONTINUOUS
 62
    5
 10
168.49236638891097
 20
49.595942245439744
 11
168.49236638891097
 21
47.055942245439745
  0
LINE
  8
_0-0_
  6
CONTINUOUS
 62
    5
 10
171.03580197173306
 20
49.577844085930536
 11
171.03580197173306
 21
47.055942245439745
  0
LINE
  8
_0-0_
  6
CONTINUOUS
 62
    5
 10
149.44580197173306
 20
62.295942245439747
 11
144.36580197173305
 21
62.295942245439747
  0
LINE
  8
_0-0_
  6
CONTINUOUS
 62
    5
 10
144.36580197173305
 20
69.915942245439737
 11
144.36580197173305
 21
59.755942245439741
  0
LINE
  8
_0-0_
  6
CONTINUOUS
 62
    5
 10
144.36580197173305
 20
59.755942245439741
 11
132.93580197173307
 21
59.755942245439741
  0
LINE
  8
_0-0_
  6
CONTINUOUS
 62
    5
 10
132.93580197173307
 20
59.755942245439741
 11
132.93580197173307
 21
47.055942245439745
  0
LINE
  8
_0-0_
  6
CONTINUOUS
 62
    5
 10
151.98580197173305
 20
64.835942245439753
 11
151.98580197173305
 21
58.485942245439745
  0
LINE
  8
_0-0_
  6
CONTINUOUS
 62
    5
 10
151.98580197173305
 20
58.485942245439745
 11
146.90580197173307
 21
58.485942245439745
  0
LINE
  8
_0-0_
  6
CONTINUOUS
 62
    5
 10
146.90580197173307
 20
58.485942245439745
 11
146.90580197173307
 21
57.215942245439749
  0
LINE
  8
_0-0_
  6
CONTINUOUS
 62
    5
 10
146.90580197173307
 20
57.215942245439749
 11
132.93580197173307
 21
57.215942245439749
  0
LINE
  8
_0-0_
  6
CONTINUOUS
 62
    5
 10
154.52580197173307
 20
64.835942245439753
 11
154.52580197173307
 21
55.945942245439738
  0
LINE
  8
_0-0_
  6
CONTINUOUS
 62
    5
 10
154.52580197173307
 20
55.945942245439738
 11
149.44580197173306
 21
55.945942245439738
  0
LINE
  8
_0-0_
  6
CONTINUOUS
 62
    5
 10
149.44580197173306
 20
55.945942245439738
 11
149.44580197173306
 21
54.675942245439742
  0
LINE
  8
_0-0_
  6
CONTINUOUS
 62
    5
 10
149.44580197173306
 20
54.675942245439742
 11
132.93580197173307
 21
54.675942245439742
  0
LINE
  8
_0-0_
  6
CONTINUOUS
 62
    5
 10
138.01580197173308
 20
54.675942245439742
 11
138.01580197173308
 21
47.055942245439745
  0
LINE
  8
_0-0_
  6
CONTINUOUS
 62
    5
 10
135.47580197173306
 20
54.675942245439742
 11
135.47580197173306
 21
47.055942245439745
  0
ENDSEC
  0
EOF
